PathFileType        4      (X/Y/Z)      C:\Users\pc\Desktop\IMUTRC\Sujet_02\Sujet_02_Tpose.trc         
DataRate	CameraRate	NumFrames	NumMarkers	Units	OrigDataRate	OrigDataStartFrame	OrigNumFrames
60.0	60.0	4	64	mm	60.0	136	155
Frame#	Time	pHipOrigin			pRightASI			pLeftASI			pRightCSI			pLeftCSI			pRightIschialTub			pLeftIschialTub			pSacrum			pL5SpinalProcess			pL3SpinalProcess			pT12SpinalProcess			pIJ			pT4SpinalProcess			pT8SpinalProcess			pPX			pC7SpinalProcess			pTopOfHead			pRightAuricularis			pLeftAuricularis			pBackOfHead			pRightAcromion			pLeftAcromion			pRightArmLatEpicondyle			pRightArmMedEpicondyle			pLeftArmLatEpicondyle			pLeftArmMedEpicondyle			pRightUlnarStyloid			pRightRadialStyloid			pRightOlecranon			pLeftUlnarStyloid			pLeftRadialStyloid			pLeftOlecranon			pRightTopOfHand			pRightPinky			pRightBallHand			pLeftTopOfHand			pLeftPinky			pLeftBallHand			pRightGreaterTrochanter			pRightKneeLatEpicondyle			pRightKneeMedEpicondyle			pRightPatella			pLeftGreaterTrochanter			pLeftKneeLatEpicondyle			pLeftKneeMedEpicondyle			pLeftPatella			pRightTibialTub			pRightLatMalleolus			pRightMedMalleolus			pLeftTibialTub			pLeftLatMalleolus			pLeftMedMalleolus			pRightHeelFoot			pRightFirstMetatarsal			pRightFifthMetatarsal			pRightPivotFoot			pRightHeelCenter			pRightToe			pLeftHeelFoot			pLeftFirstMetatarsal			pLeftFifthMetatarsal			pLeftPivotFoot			pLeftHeelCenter			pLeftToe			
		X1	Y1	Z1	X2	Y2	Z2	X3	Y3	Z3	X4	Y4	Z4	X5	Y5	Z5	X6	Y6	Z6	X7	Y7	Z7	X8	Y8	Z8	X9	Y9	Z9	X10	Y10	Z10	X11	Y11	Z11	X12	Y12	Z12	X13	Y13	Z13	X14	Y14	Z14	X15	Y15	Z15	X16	Y16	Z16	X17	Y17	Z17	X18	Y18	Z18	X19	Y19	Z19	X20	Y20	Z20	X21	Y21	Z21	X22	Y22	Z22	X23	Y23	Z23	X24	Y24	Z24	X25	Y25	Z25	X26	Y26	Z26	X27	Y27	Z27	X28	Y28	Z28	X29	Y29	Z29	X30	Y30	Z30	X31	Y31	Z31	X32	Y32	Z32	X33	Y33	Z33	X34	Y34	Z34	X35	Y35	Z35	X36	Y36	Z36	X37	Y37	Z37	X38	Y38	Z38	X39	Y39	Z39	X40	Y40	Z40	X41	Y41	Z41	X42	Y42	Z42	X43	Y43	Z43	X44	Y44	Z44	X45	Y45	Z45	X46	Y46	Z46	X47	Y47	Z47	X48	Y48	Z48	X49	Y49	Z49	X50	Y50	Z50	X51	Y51	Z51	X52	Y52	Z52	X53	Y53	Z53	X54	Y54	Z54	X55	Y55	Z55	X56	Y56	Z56	X57	Y57	Z57	X58	Y58	Z58	X59	Y59	Z59	X60	Y60	Z60	X61	Y61	Z61	X62	Y62	Z62	X63	Y63	Z63	X64	Y64	Z64	
136	2.25	-4418.18022	1100.2248000000004	-6470.01307	-4330.16224	1190.3165100000006	-6324.3917	-4365.64593	1222.1135800000004	-6609.41328	-4380.3924	1262.8967800000005	-6336.3732	-4409.65492	1289.1639300000004	-6570.01256	-4469.33204	1032.7136300000004	-6411.0272	-4484.07851	1045.8472000000004	-6527.84688	-4488.68678	1121.4228500000004	-6458.72281	-4450.43812	1218.8877900000005	-6453.4233	-4435.69166	1333.8641600000005	-6450.42792	-4432.00504	1439.6239900000005	-6449.96709	-4255.50824	1644.9224800000004	-6471.62597	-4412.88071	1638.0100800000005	-6458.03157	-4427.39677	1545.3838200000005	-6452.96247	-4269.79388	1517.5037800000005	-6464.94398	-4401.12962	1693.0789200000004	-6459.64446	-4339.6092	1912.4326400000004	-6493.28484	-4319.79363	1833.1703700000005	-6421.1654	-4354.35566	1817.5022500000005	-6544.89748	-4386.15274	1825.7971400000004	-6469.32183	-4382.23571	1684.3232000000005	-6257.57176	-4411.0374	1674.4154200000005	-6662.63882	-4379.70116	1561.5127700000005	-5988.44871	-4329.471	1523.4945300000004	-6003.19518	-4359.65518	1527.8723900000005	-6919.54995	-4301.36054	1510.5913700000006	-6897.19983	-4289.14862	1483.1721600000005	-5722.32104	-4307.3513	1538.0105900000005	-5712.41325	-4348.82574	1517.7341900000004	-6007.80345	-4274.40216	1437.3198600000005	-7178.5348	-4304.81675	1485.2458800000004	-7193.05086	-4318.87197	1497.9186300000003	-6894.66529	-4289.14862	1510.3609600000002	-5530.15612	-4265.18561	1479.7159500000005	-5612.18335	-4275.0934	1502.2964800000004	-5685.22445	-4263.11189	1444.0018500000006	-7370.46931	-4242.60508	1425.5687600000006	-7283.83381	-4262.42065	1453.6792200000004	-7214.94015	-4404.81624	1056.2158100000004	-6295.35959	-4443.2953	610.5959600000003	-6326.23501	-4445.59944	610.1351400000003	-6412.64009	-4396.06052	609.6743100000003	-6373.46979	-4449.28606	1081.3308900000004	-6643.74491	-4477.39651	634.0981500000005	-6627.15513	-4457.12012	629.2594600000004	-6543.05418	-4419.33229	631.5636000000004	-6593.74516	-4383.61819	569.8127600000004	-6373.23937	-4454.35515	145.3909600000004	-6333.83865	-4455.73764	144.6997200000004	-6402.27148	-4408.04203	591.0108100000004	-6599.04467	-4493.75588	169.1235600000004	-6637.98457	-4477.62693	165.20653000000038	-6571.62546	-4511.26731	31.797070000000392	-6393.51577	-4326.70604	9.446960000000391	-6395.8199	-4346.98243	0.46083000000038643	-6310.7973	-4312.42039	1.3824800000003887	-6349.04595	-4469.79286	24.654250000000392	-6384.29923	-4230.62358	1.1520700000003876	-6330.15204	-4556.42837	66.1286900000004	-6568.16925	-4385.23108	7.373230000000405	-6610.56535	-4426.2447	7.8340600000004095	-6688.21473	-4384.30943	-0.46082999999959223	-6659.41303	-4520.71426	51.1518100000004	-6587.06317	-4310.11626	0.6912400000004102	-6698.81375	
137	2.267	-4418.18022	1100.2248000000004	-6469.78266	-4329.93183	1190.3165100000006	-6324.16128	-4365.64593	1222.1135800000004	-6609.18287	-4380.3924	1262.8967800000005	-6336.14279	-4409.65492	1289.1639300000004	-6569.78215	-4469.33204	1032.7136300000004	-6410.79679	-4484.07851	1045.8472000000004	-6527.61647	-4488.68678	1121.4228500000004	-6458.4924	-4450.43812	1218.8877900000005	-6453.4233	-4435.69166	1333.8641600000005	-6450.42792	-4432.00504	1439.6239900000005	-6449.96709	-4255.27783	1644.9224800000004	-6471.62597	-4412.88071	1638.0100800000005	-6457.80115	-4427.16635	1545.3838200000005	-6452.73206	-4269.56347	1517.2733700000006	-6464.94398	-4401.12962	1693.0789200000004	-6459.64446	-4339.37878	1912.4326400000004	-6493.28484	-4319.79363	1833.1703700000005	-6420.93498	-4354.12525	1817.5022500000005	-6544.66707	-4385.92232	1825.7971400000004	-6469.32183	-4382.00529	1684.3232000000005	-6257.34135	-4411.0374	1674.4154200000005	-6662.40841	-4379.47074	1561.2823600000004	-5988.2183	-4329.24059	1523.2641200000005	-6003.19518	-4359.65518	1527.8723900000005	-6919.31954	-4301.36054	1510.3609600000004	-6897.19983	-4288.91821	1482.9417400000004	-5722.09062	-4307.12088	1537.7801700000005	-5712.18284	-4348.59533	1517.7341900000004	-6007.57304	-4274.40216	1437.0894400000004	-7178.30439	-4304.81675	1485.0154700000005	-7192.82045	-4318.87197	1497.6882100000005	-6894.43487	-4288.91821	1510.1305400000003	-5530.15612	-4264.72479	1479.4855400000004	-5612.18335	-4274.86298	1502.0660700000005	-5684.99404	-4263.11189	1443.7714400000004	-7370.2389	-4242.37467	1425.1079400000006	-7283.60339	-4262.42065	1453.2183900000005	-7214.70974	-4404.81624	1056.2158100000004	-6295.35959	-4443.2953	610.5959600000003	-6326.00459	-4445.59944	610.1351400000003	-6412.64009	-4396.06052	609.6743100000003	-6373.46979	-4449.28606	1081.3308900000004	-6643.51449	-4477.39651	634.0981500000005	-6627.15513	-4456.8897	629.2594600000004	-6543.05418	-4419.33229	631.5636000000004	-6593.74516	-4383.61819	569.8127600000004	-6373.23937	-4454.35515	145.3909600000004	-6333.83865	-4455.73764	144.6997200000004	-6402.27148	-4408.04203	591.0108100000004	-6598.81426	-4493.75588	169.1235600000004	-6637.98457	-4477.62693	165.20653000000038	-6571.62546	-4511.26731	31.797070000000392	-6393.51577	-4326.70604	9.446960000000391	-6395.8199	-4346.98243	0.46083000000038643	-6310.7973	-4312.42039	1.3824800000003887	-6349.04595	-4469.79286	24.654250000000392	-6384.29923	-4230.62358	1.1520700000003876	-6330.15204	-4556.42837	66.1286900000004	-6568.16925	-4385.23108	7.373230000000405	-6610.56535	-4426.2447	7.8340600000004095	-6688.21473	-4384.30943	-0.46082999999959223	-6659.41303	-4520.71426	51.382230000000405	-6587.06317	-4310.11626	0.6912400000004102	-6698.81375	
138	2.283	-4418.18022	1100.2248000000004	-6469.55225	-4329.93183	1190.3165100000006	-6324.16128	-4365.64593	1222.1135800000004	-6609.18287	-4380.3924	1262.8967800000005	-6336.14279	-4409.65492	1289.1639300000004	-6569.78215	-4469.56245	1032.7136300000004	-6410.79679	-4484.07851	1045.8472000000004	-6527.61647	-4488.68678	1121.4228500000004	-6458.4924	-4450.43812	1218.8877900000005	-6453.19288	-4435.69166	1333.8641600000005	-6450.19751	-4432.00504	1439.6239900000005	-6449.73668	-4255.27783	1644.9224800000004	-6471.39556	-4412.88071	1638.0100800000005	-6457.80115	-4427.16635	1545.3838200000005	-6452.50164	-4269.56347	1517.2733700000006	-6464.71356	-4401.12962	1693.0789200000004	-6459.41405	-4339.14837	1912.4326400000004	-6493.05443	-4319.56322	1833.1703700000005	-6420.93498	-4353.89484	1817.5022500000005	-6544.66707	-4385.69191	1825.7971400000004	-6469.09142	-4382.00529	1684.0927900000004	-6257.34135	-4410.80699	1674.4154200000005	-6662.40841	-4379.24033	1561.2823600000004	-5988.2183	-4329.01017	1523.2641200000005	-6003.19518	-4359.65518	1527.6419800000006	-6919.08912	-4301.59096	1510.1305400000006	-6896.96942	-4288.6878	1482.7113300000005	-5722.09062	-4306.89047	1537.5497600000006	-5712.18284	-4348.36491	1517.5037800000005	-6007.57304	-4274.40216	1436.6286200000004	-7178.07398	-4304.81675	1484.5546400000005	-7192.59003	-4319.10239	1497.4578000000004	-6894.20446	-4288.45738	1509.9001300000002	-5529.9257	-4264.49437	1479.0247100000004	-5612.18335	-4274.63257	1501.8356600000004	-5684.99404	-4262.65106	1443.3106100000005	-7370.00848	-4242.37467	1424.6471100000006	-7283.14257	-4262.42065	1452.9879800000006	-7214.24891	-4404.81624	1056.2158100000004	-6295.12917	-4443.2953	610.5959600000003	-6326.00459	-4445.59944	610.1351400000003	-6412.64009	-4396.06052	609.6743100000003	-6373.46979	-4449.28606	1081.3308900000004	-6643.28408	-4477.39651	634.0981500000005	-6626.92472	-4456.8897	629.2594600000004	-6543.05418	-4419.33229	631.5636000000004	-6593.74516	-4383.61819	569.8127600000004	-6373.23937	-4454.35515	145.3909600000004	-6333.83865	-4455.73764	144.6997200000004	-6402.27148	-4408.04203	591.0108100000004	-6598.81426	-4493.75588	169.1235600000004	-6637.98457	-4477.62693	165.20653000000038	-6571.62546	-4511.26731	31.797070000000392	-6393.51577	-4326.70604	9.446960000000391	-6395.8199	-4346.98243	0.46083000000038643	-6310.7973	-4312.42039	1.3824800000003887	-6349.04595	-4469.79286	24.654250000000392	-6384.29923	-4230.62358	1.1520700000003876	-6330.15204	-4556.42837	66.1286900000004	-6568.16925	-4385.23108	7.373230000000405	-6610.56535	-4426.2447	7.8340600000004095	-6688.21473	-4384.30943	-0.46082999999959223	-6659.41303	-4520.71426	51.382230000000405	-6587.06317	-4310.11626	0.6912400000004102	-6698.81375	
139	2.3	-4418.18022	1100.2248000000004	-6469.55225	-4329.93183	1190.3165100000006	-6323.93087	-4365.64593	1222.1135800000004	-6608.95246	-4380.3924	1262.8967800000005	-6335.91238	-4409.65492	1289.1639300000004	-6569.55174	-4469.56245	1032.7136300000004	-6410.56637	-4484.07851	1045.8472000000004	-6527.38605	-4488.68678	1121.4228500000004	-6458.26198	-4450.43812	1218.8877900000005	-6453.19288	-4435.69166	1333.8641600000005	-6450.19751	-4432.00504	1439.6239900000005	-6449.73668	-4255.27783	1644.9224800000004	-6471.39556	-4412.88071	1638.0100800000005	-6457.57074	-4427.16635	1545.3838200000005	-6452.50164	-4269.56347	1517.2733700000006	-6464.71356	-4400.89921	1693.0789200000004	-6459.18364	-4338.91796	1912.2022300000006	-6493.05443	-4319.3328	1833.1703700000005	-6420.70457	-4353.89484	1817.5022500000005	-6544.43666	-4385.4615	1825.7971400000004	-6469.09142	-4382.00529	1684.0927900000004	-6257.11093	-4410.80699	1674.4154200000005	-6662.17799	-4379.24033	1561.2823600000004	-5987.98788	-4329.01017	1523.0337000000004	-6002.96477	-4359.88559	1527.4115600000005	-6919.08912	-4301.59096	1509.9001300000004	-6896.73901	-4288.45738	1482.4809200000004	-5722.09062	-4306.66006	1537.3193500000004	-5712.18284	-4348.1345	1517.5037800000005	-6007.57304	-4274.63257	1436.3982000000005	-7177.84356	-4304.81675	1484.3242200000004	-7192.35962	-4319.10239	1497.2273800000005	-6893.97404	-4288.22697	1509.4393000000002	-5529.9257	-4264.26396	1478.7943000000005	-5612.18335	-4274.40216	1501.6052400000005	-5684.99404	-4262.42065	1442.8497800000005	-7369.54765	-4242.37467	1424.1862800000004	-7282.91215	-4262.42065	1452.5271500000003	-7214.01849	-4404.81624	1056.2158100000004	-6295.12917	-4443.2953	610.5959600000003	-6326.00459	-4445.59944	610.1351400000003	-6412.40968	-4396.06052	609.6743100000003	-6373.23937	-4449.28606	1081.3308900000004	-6643.28408	-4477.39651	634.0981500000005	-6626.92472	-4456.8897	629.2594600000004	-6543.05418	-4419.33229	631.5636000000004	-6593.74516	-4383.61819	569.8127600000004	-6373.00896	-4454.35515	145.3909600000004	-6333.83865	-4455.73764	144.6997200000004	-6402.27148	-4408.04203	591.0108100000004	-6598.81426	-4493.75588	169.1235600000004	-6637.98457	-4477.62693	165.20653000000038	-6571.62546	-4511.26731	31.797070000000392	-6393.51577	-4326.70604	9.446960000000391	-6395.8199	-4346.98243	0.46083000000038643	-6310.7973	-4312.42039	1.3824800000003887	-6349.04595	-4469.79286	24.654250000000392	-6384.29923	-4230.62358	1.1520700000003876	-6330.15204	-4556.42837	66.1286900000004	-6568.16925	-4385.23108	7.373230000000405	-6610.56535	-4426.2447	7.8340600000004095	-6688.21473	-4384.30943	-0.46082999999959223	-6659.41303	-4520.71426	51.382230000000405	-6587.06317	-4310.11626	0.6912400000004102	-6698.81375	
